<mxfile host="Electron" modified="2024-06-18T21:31:28.876Z" agent="Mozilla/5.0 (Windows NT 10.0; Win64; x64) AppleWebKit/537.36 (KHTML, like Gecko) draw.io/24.5.3 Chrome/124.0.6367.207 Electron/30.0.6 Safari/537.36" etag="qIRrKG1jM1t-bqN9W216" version="24.5.3" type="device">
  <diagram name="PÃ¡gina-1" id="ODdA3_kuqzCvujFI-W2R">
    <mxGraphModel dx="2442" dy="2198" grid="1" gridSize="10" guides="1" tooltips="1" connect="1" arrows="1" fold="1" page="1" pageScale="1" pageWidth="827" pageHeight="1169" math="0" shadow="0">
      <root>
        <mxCell id="0" />
        <mxCell id="1" parent="0" />
        <mxCell id="9ZyespkmRvrEI_CUxww9-3" value="&lt;h1 style=&quot;line-height: 120%;&quot;&gt;src&lt;/h1&gt;" style="shape=ext;double=1;rounded=1;whiteSpace=wrap;html=1;fillStyle=hatch;labelBackgroundColor=default;labelBorderColor=default;textShadow=0;" vertex="1" parent="1">
          <mxGeometry x="-10" y="-250" width="452.5" height="270" as="geometry" />
        </mxCell>
        <mxCell id="9ZyespkmRvrEI_CUxww9-8" value="&lt;h1&gt;data&lt;/h1&gt;" style="shape=ext;double=1;rounded=1;whiteSpace=wrap;html=1;fillStyle=hatch;labelBackgroundColor=default;labelBorderColor=default;" vertex="1" parent="1">
          <mxGeometry x="597.5" y="-310" width="300" height="192.5" as="geometry" />
        </mxCell>
        <mxCell id="9ZyespkmRvrEI_CUxww9-9" value="&lt;h1&gt;tests&lt;/h1&gt;" style="shape=ext;double=1;rounded=1;whiteSpace=wrap;html=1;fillStyle=hatch;labelBackgroundColor=default;labelBorderColor=default;" vertex="1" parent="1">
          <mxGeometry x="505" y="650" width="280" height="130" as="geometry" />
        </mxCell>
        <mxCell id="9ZyespkmRvrEI_CUxww9-80" style="edgeStyle=orthogonalEdgeStyle;rounded=0;orthogonalLoop=1;jettySize=auto;html=1;exitX=0;exitY=0.25;exitDx=0;exitDy=0;" edge="1" parent="1" source="9ZyespkmRvrEI_CUxww9-10">
          <mxGeometry relative="1" as="geometry">
            <mxPoint x="830" y="541.7692307692307" as="targetPoint" />
          </mxGeometry>
        </mxCell>
        <mxCell id="9ZyespkmRvrEI_CUxww9-10" value="&lt;h1&gt;docs&lt;/h1&gt;" style="shape=ext;double=1;rounded=1;whiteSpace=wrap;html=1;fillStyle=hatch;labelBackgroundColor=default;labelBorderColor=default;" vertex="1" parent="1">
          <mxGeometry x="1040" y="630" width="280" height="130" as="geometry" />
        </mxCell>
        <mxCell id="9ZyespkmRvrEI_CUxww9-12" value="&lt;h1&gt;output&lt;/h1&gt;" style="shape=ext;double=1;rounded=1;whiteSpace=wrap;html=1;fillStyle=hatch;labelBackgroundColor=default;labelBorderColor=default;" vertex="1" parent="1">
          <mxGeometry x="172.5" y="1150" width="332.5" height="200" as="geometry" />
        </mxCell>
        <mxCell id="9ZyespkmRvrEI_CUxww9-13" value="&lt;h1&gt;notebooks&lt;/h1&gt;" style="shape=ext;double=1;rounded=1;whiteSpace=wrap;html=1;fillStyle=hatch;labelBackgroundColor=default;labelBorderColor=default;" vertex="1" parent="1">
          <mxGeometry x="1000" y="250" width="314.5" height="160" as="geometry" />
        </mxCell>
        <mxCell id="9ZyespkmRvrEI_CUxww9-15" value="plots" style="ellipse;whiteSpace=wrap;html=1;fontStyle=1" vertex="1" parent="1">
          <mxGeometry x="400" y="1180" width="68" height="40" as="geometry" />
        </mxCell>
        <mxCell id="9ZyespkmRvrEI_CUxww9-16" value="&lt;b&gt;results&lt;/b&gt;" style="ellipse;whiteSpace=wrap;html=1;" vertex="1" parent="1">
          <mxGeometry x="202.5" y="1170" width="72.5" height="50" as="geometry" />
        </mxCell>
        <mxCell id="9ZyespkmRvrEI_CUxww9-68" style="edgeStyle=orthogonalEdgeStyle;rounded=0;orthogonalLoop=1;jettySize=auto;html=1;entryX=1;entryY=0.5;entryDx=0;entryDy=0;" edge="1" parent="1" source="9ZyespkmRvrEI_CUxww9-17" target="9ZyespkmRvrEI_CUxww9-40">
          <mxGeometry relative="1" as="geometry">
            <Array as="points">
              <mxPoint x="510" y="223" />
              <mxPoint x="510" y="300" />
            </Array>
          </mxGeometry>
        </mxCell>
        <mxCell id="9ZyespkmRvrEI_CUxww9-72" style="edgeStyle=orthogonalEdgeStyle;rounded=0;orthogonalLoop=1;jettySize=auto;html=1;exitX=1;exitY=0.5;exitDx=0;exitDy=0;entryX=0.5;entryY=0;entryDx=0;entryDy=0;" edge="1" parent="1" source="9ZyespkmRvrEI_CUxww9-17" target="9ZyespkmRvrEI_CUxww9-33">
          <mxGeometry relative="1" as="geometry" />
        </mxCell>
        <mxCell id="9ZyespkmRvrEI_CUxww9-73" style="edgeStyle=orthogonalEdgeStyle;rounded=0;orthogonalLoop=1;jettySize=auto;html=1;exitX=0.5;exitY=0;exitDx=0;exitDy=0;" edge="1" parent="1" source="9ZyespkmRvrEI_CUxww9-17" target="9ZyespkmRvrEI_CUxww9-34">
          <mxGeometry relative="1" as="geometry" />
        </mxCell>
        <mxCell id="9ZyespkmRvrEI_CUxww9-17" value="&lt;b&gt;processed/&lt;/b&gt;" style="ellipse;whiteSpace=wrap;html=1;" vertex="1" parent="1">
          <mxGeometry x="710" y="-175" width="75" height="40" as="geometry" />
        </mxCell>
        <mxCell id="9ZyespkmRvrEI_CUxww9-61" style="edgeStyle=orthogonalEdgeStyle;rounded=0;orthogonalLoop=1;jettySize=auto;html=1;entryX=1;entryY=0.5;entryDx=0;entryDy=0;" edge="1" parent="1" source="9ZyespkmRvrEI_CUxww9-19" target="9ZyespkmRvrEI_CUxww9-38">
          <mxGeometry relative="1" as="geometry">
            <Array as="points">
              <mxPoint x="430" y="160" />
            </Array>
          </mxGeometry>
        </mxCell>
        <mxCell id="9ZyespkmRvrEI_CUxww9-62" style="edgeStyle=orthogonalEdgeStyle;rounded=0;orthogonalLoop=1;jettySize=auto;html=1;entryX=0.5;entryY=1;entryDx=0;entryDy=0;" edge="1" parent="1" source="9ZyespkmRvrEI_CUxww9-19" target="9ZyespkmRvrEI_CUxww9-39">
          <mxGeometry relative="1" as="geometry">
            <mxPoint x="520" y="360" as="targetPoint" />
            <Array as="points">
              <mxPoint x="530" y="164" />
              <mxPoint x="530" y="380" />
              <mxPoint x="138" y="380" />
            </Array>
          </mxGeometry>
        </mxCell>
        <mxCell id="9ZyespkmRvrEI_CUxww9-19" value="raw/" style="ellipse;whiteSpace=wrap;html=1;fontStyle=1" vertex="1" parent="1">
          <mxGeometry x="602.5" y="-237.5" width="85" height="47.5" as="geometry" />
        </mxCell>
        <mxCell id="9ZyespkmRvrEI_CUxww9-44" style="edgeStyle=orthogonalEdgeStyle;rounded=0;orthogonalLoop=1;jettySize=auto;html=1;" edge="1" parent="1" source="9ZyespkmRvrEI_CUxww9-21" target="9ZyespkmRvrEI_CUxww9-38">
          <mxGeometry relative="1" as="geometry" />
        </mxCell>
        <mxCell id="9ZyespkmRvrEI_CUxww9-53" style="edgeStyle=orthogonalEdgeStyle;rounded=0;orthogonalLoop=1;jettySize=auto;html=1;entryX=0.5;entryY=0;entryDx=0;entryDy=0;" edge="1" parent="1" source="9ZyespkmRvrEI_CUxww9-21" target="9ZyespkmRvrEI_CUxww9-40">
          <mxGeometry relative="1" as="geometry">
            <Array as="points">
              <mxPoint x="93.5" y="-90" />
              <mxPoint x="260.5" y="-90" />
            </Array>
          </mxGeometry>
        </mxCell>
        <mxCell id="9ZyespkmRvrEI_CUxww9-54" style="edgeStyle=orthogonalEdgeStyle;rounded=0;orthogonalLoop=1;jettySize=auto;html=1;exitX=0;exitY=0.5;exitDx=0;exitDy=0;entryX=0.5;entryY=0;entryDx=0;entryDy=0;" edge="1" parent="1" source="9ZyespkmRvrEI_CUxww9-21" target="9ZyespkmRvrEI_CUxww9-39">
          <mxGeometry relative="1" as="geometry" />
        </mxCell>
        <mxCell id="9ZyespkmRvrEI_CUxww9-60" value="" style="edgeStyle=orthogonalEdgeStyle;rounded=0;orthogonalLoop=1;jettySize=auto;html=1;entryX=0;entryY=0.5;entryDx=0;entryDy=0;" edge="1" parent="1" source="9ZyespkmRvrEI_CUxww9-21" target="9ZyespkmRvrEI_CUxww9-41">
          <mxGeometry relative="1" as="geometry">
            <mxPoint x="132.0151515151515" y="-160" as="targetPoint" />
            <Array as="points">
              <mxPoint x="83.5" y="-200" />
            </Array>
          </mxGeometry>
        </mxCell>
        <mxCell id="9ZyespkmRvrEI_CUxww9-21" value="main.py" style="ellipse;whiteSpace=wrap;html=1;fontStyle=1" vertex="1" parent="1">
          <mxGeometry x="34.5" y="-160" width="97.5" height="50" as="geometry" />
        </mxCell>
        <mxCell id="9ZyespkmRvrEI_CUxww9-24" value="normativa.pdf" style="ellipse;whiteSpace=wrap;html=1;fontStyle=1" vertex="1" parent="1">
          <mxGeometry x="1224" y="700" width="85" height="50" as="geometry" />
        </mxCell>
        <mxCell id="9ZyespkmRvrEI_CUxww9-79" style="edgeStyle=orthogonalEdgeStyle;rounded=0;orthogonalLoop=1;jettySize=auto;html=1;exitX=0.5;exitY=0;exitDx=0;exitDy=0;entryX=0.5;entryY=1;entryDx=0;entryDy=0;" edge="1" parent="1" source="9ZyespkmRvrEI_CUxww9-25" target="9ZyespkmRvrEI_CUxww9-13">
          <mxGeometry relative="1" as="geometry" />
        </mxCell>
        <mxCell id="9ZyespkmRvrEI_CUxww9-81" style="edgeStyle=orthogonalEdgeStyle;rounded=0;orthogonalLoop=1;jettySize=auto;html=1;exitX=0.5;exitY=1;exitDx=0;exitDy=0;entryX=1;entryY=0.5;entryDx=0;entryDy=0;" edge="1" parent="1" source="9ZyespkmRvrEI_CUxww9-25" target="9ZyespkmRvrEI_CUxww9-9">
          <mxGeometry relative="1" as="geometry" />
        </mxCell>
        <mxCell id="9ZyespkmRvrEI_CUxww9-83" style="edgeStyle=orthogonalEdgeStyle;rounded=0;orthogonalLoop=1;jettySize=auto;html=1;exitX=0.5;exitY=0;exitDx=0;exitDy=0;entryX=1;entryY=0.5;entryDx=0;entryDy=0;" edge="1" parent="1" source="9ZyespkmRvrEI_CUxww9-25" target="9ZyespkmRvrEI_CUxww9-3">
          <mxGeometry relative="1" as="geometry">
            <Array as="points">
              <mxPoint x="906" y="460" />
              <mxPoint x="490" y="460" />
              <mxPoint x="490" y="195" />
            </Array>
          </mxGeometry>
        </mxCell>
        <mxCell id="9ZyespkmRvrEI_CUxww9-25" value="README.md" style="ellipse;whiteSpace=wrap;html=1;fontStyle=1" vertex="1" parent="1">
          <mxGeometry x="1050" y="640" width="90" height="50" as="geometry" />
        </mxCell>
        <mxCell id="9ZyespkmRvrEI_CUxww9-31" value="test_utils.py" style="ellipse;whiteSpace=wrap;html=1;fontStyle=1" vertex="1" parent="1">
          <mxGeometry x="515" y="720" width="100" height="50" as="geometry" />
        </mxCell>
        <mxCell id="9ZyespkmRvrEI_CUxww9-76" style="edgeStyle=orthogonalEdgeStyle;rounded=0;orthogonalLoop=1;jettySize=auto;html=1;exitX=0.5;exitY=0;exitDx=0;exitDy=0;entryX=1;entryY=1;entryDx=0;entryDy=0;" edge="1" parent="1" source="9ZyespkmRvrEI_CUxww9-32" target="9ZyespkmRvrEI_CUxww9-38">
          <mxGeometry relative="1" as="geometry">
            <Array as="points">
              <mxPoint x="680" y="660" />
              <mxPoint x="680" y="425" />
              <mxPoint x="430" y="425" />
            </Array>
          </mxGeometry>
        </mxCell>
        <mxCell id="9ZyespkmRvrEI_CUxww9-77" style="edgeStyle=orthogonalEdgeStyle;rounded=0;orthogonalLoop=1;jettySize=auto;html=1;exitX=0;exitY=0.5;exitDx=0;exitDy=0;entryX=0;entryY=1;entryDx=0;entryDy=0;" edge="1" parent="1" source="9ZyespkmRvrEI_CUxww9-32" target="9ZyespkmRvrEI_CUxww9-39">
          <mxGeometry relative="1" as="geometry" />
        </mxCell>
        <mxCell id="9ZyespkmRvrEI_CUxww9-32" value="test_simulation.py" style="ellipse;whiteSpace=wrap;html=1;fontStyle=1" vertex="1" parent="1">
          <mxGeometry x="665" y="660" width="110" height="50" as="geometry" />
        </mxCell>
        <mxCell id="9ZyespkmRvrEI_CUxww9-75" style="edgeStyle=orthogonalEdgeStyle;rounded=0;orthogonalLoop=1;jettySize=auto;html=1;entryX=0;entryY=0;entryDx=0;entryDy=0;" edge="1" parent="1" source="9ZyespkmRvrEI_CUxww9-33" target="9ZyespkmRvrEI_CUxww9-15">
          <mxGeometry relative="1" as="geometry">
            <mxPoint x="790" y="570" as="targetPoint" />
            <Array as="points">
              <mxPoint x="937" y="285" />
              <mxPoint x="937" y="500" />
              <mxPoint x="290" y="500" />
              <mxPoint x="290" y="847" />
            </Array>
          </mxGeometry>
        </mxCell>
        <mxCell id="9ZyespkmRvrEI_CUxww9-33" value="system1_analysis.ipynb" style="ellipse;whiteSpace=wrap;html=1;fontStyle=1" vertex="1" parent="1">
          <mxGeometry x="1013.5" y="260" width="145.5" height="50" as="geometry" />
        </mxCell>
        <mxCell id="9ZyespkmRvrEI_CUxww9-74" style="edgeStyle=orthogonalEdgeStyle;rounded=0;orthogonalLoop=1;jettySize=auto;html=1;exitX=0.5;exitY=1;exitDx=0;exitDy=0;entryX=1;entryY=0;entryDx=0;entryDy=0;" edge="1" parent="1" source="9ZyespkmRvrEI_CUxww9-34" target="9ZyespkmRvrEI_CUxww9-15">
          <mxGeometry relative="1" as="geometry" />
        </mxCell>
        <mxCell id="9ZyespkmRvrEI_CUxww9-34" value="system2_analysis.ipynb" style="ellipse;whiteSpace=wrap;html=1;fontStyle=1" vertex="1" parent="1">
          <mxGeometry x="1119" y="340" width="150" height="40" as="geometry" />
        </mxCell>
        <mxCell id="9ZyespkmRvrEI_CUxww9-65" style="edgeStyle=orthogonalEdgeStyle;rounded=0;orthogonalLoop=1;jettySize=auto;html=1;entryX=0;entryY=1;entryDx=0;entryDy=0;" edge="1" parent="1" source="9ZyespkmRvrEI_CUxww9-38" target="9ZyespkmRvrEI_CUxww9-17">
          <mxGeometry relative="1" as="geometry">
            <mxPoint x="440" y="440" as="targetPoint" />
            <Array as="points">
              <mxPoint x="380" y="440" />
              <mxPoint x="721" y="440" />
            </Array>
          </mxGeometry>
        </mxCell>
        <mxCell id="9ZyespkmRvrEI_CUxww9-66" style="edgeStyle=orthogonalEdgeStyle;rounded=0;orthogonalLoop=1;jettySize=auto;html=1;exitX=0.5;exitY=0;exitDx=0;exitDy=0;entryX=1;entryY=0.5;entryDx=0;entryDy=0;" edge="1" parent="1" source="9ZyespkmRvrEI_CUxww9-38" target="9ZyespkmRvrEI_CUxww9-41">
          <mxGeometry relative="1" as="geometry" />
        </mxCell>
        <mxCell id="9ZyespkmRvrEI_CUxww9-38" value="simulate_system2.py" style="ellipse;whiteSpace=wrap;html=1;fontStyle=1" vertex="1" parent="1">
          <mxGeometry x="284.5" y="-160" width="140" height="50" as="geometry" />
        </mxCell>
        <mxCell id="9ZyespkmRvrEI_CUxww9-63" style="edgeStyle=orthogonalEdgeStyle;rounded=0;orthogonalLoop=1;jettySize=auto;html=1;exitX=0;exitY=0.5;exitDx=0;exitDy=0;entryX=0.5;entryY=1;entryDx=0;entryDy=0;" edge="1" parent="1" source="9ZyespkmRvrEI_CUxww9-39" target="9ZyespkmRvrEI_CUxww9-17">
          <mxGeometry relative="1" as="geometry">
            <mxPoint x="730" y="580" as="targetPoint" />
            <Array as="points">
              <mxPoint x="52" y="295" />
              <mxPoint x="52" y="450" />
              <mxPoint x="748" y="450" />
            </Array>
          </mxGeometry>
        </mxCell>
        <mxCell id="9ZyespkmRvrEI_CUxww9-67" style="edgeStyle=orthogonalEdgeStyle;rounded=0;orthogonalLoop=1;jettySize=auto;html=1;entryX=0.5;entryY=0;entryDx=0;entryDy=0;" edge="1" parent="1" source="9ZyespkmRvrEI_CUxww9-39" target="9ZyespkmRvrEI_CUxww9-41">
          <mxGeometry relative="1" as="geometry">
            <mxPoint x="112.5" y="-300" as="targetPoint" />
          </mxGeometry>
        </mxCell>
        <mxCell id="9ZyespkmRvrEI_CUxww9-39" value="simulate_system1.py" style="ellipse;whiteSpace=wrap;html=1;fontStyle=1" vertex="1" parent="1">
          <mxGeometry x="47" y="-30" width="130" height="50" as="geometry" />
        </mxCell>
        <mxCell id="9ZyespkmRvrEI_CUxww9-69" style="edgeStyle=orthogonalEdgeStyle;rounded=0;orthogonalLoop=1;jettySize=auto;html=1;exitX=0.5;exitY=1;exitDx=0;exitDy=0;entryX=0.5;entryY=0;entryDx=0;entryDy=0;" edge="1" parent="1" source="9ZyespkmRvrEI_CUxww9-40" target="9ZyespkmRvrEI_CUxww9-15">
          <mxGeometry relative="1" as="geometry" />
        </mxCell>
        <mxCell id="9ZyespkmRvrEI_CUxww9-71" style="edgeStyle=orthogonalEdgeStyle;rounded=0;orthogonalLoop=1;jettySize=auto;html=1;exitX=0;exitY=0.5;exitDx=0;exitDy=0;entryX=0;entryY=1;entryDx=0;entryDy=0;" edge="1" parent="1" source="9ZyespkmRvrEI_CUxww9-40" target="9ZyespkmRvrEI_CUxww9-41">
          <mxGeometry relative="1" as="geometry">
            <Array as="points">
              <mxPoint x="194.5" />
              <mxPoint x="194.5" y="-186" />
            </Array>
          </mxGeometry>
        </mxCell>
        <mxCell id="9ZyespkmRvrEI_CUxww9-40" value="analyze_results.py" style="ellipse;whiteSpace=wrap;html=1;fontStyle=1" vertex="1" parent="1">
          <mxGeometry x="204.5" y="-30" width="112.5" height="60" as="geometry" />
        </mxCell>
        <mxCell id="9ZyespkmRvrEI_CUxww9-78" style="edgeStyle=orthogonalEdgeStyle;rounded=0;orthogonalLoop=1;jettySize=auto;html=1;exitX=0.5;exitY=1;exitDx=0;exitDy=0;entryX=0.5;entryY=0;entryDx=0;entryDy=0;" edge="1" parent="1" source="9ZyespkmRvrEI_CUxww9-41" target="9ZyespkmRvrEI_CUxww9-31">
          <mxGeometry relative="1" as="geometry">
            <Array as="points">
              <mxPoint x="242" y="400" />
              <mxPoint x="565" y="400" />
            </Array>
          </mxGeometry>
        </mxCell>
        <mxCell id="9ZyespkmRvrEI_CUxww9-41" value="utils.py" style="ellipse;whiteSpace=wrap;html=1;fontStyle=1" vertex="1" parent="1">
          <mxGeometry x="167" y="-220" width="100" height="40" as="geometry" />
        </mxCell>
        <mxCell id="9ZyespkmRvrEI_CUxww9-82" style="edgeStyle=orthogonalEdgeStyle;rounded=0;orthogonalLoop=1;jettySize=auto;html=1;exitX=0;exitY=0.5;exitDx=0;exitDy=0;entryX=1.004;entryY=0.599;entryDx=0;entryDy=0;entryPerimeter=0;" edge="1" parent="1" source="9ZyespkmRvrEI_CUxww9-25" target="9ZyespkmRvrEI_CUxww9-12">
          <mxGeometry relative="1" as="geometry" />
        </mxCell>
        <mxCell id="9ZyespkmRvrEI_CUxww9-87" style="edgeStyle=orthogonalEdgeStyle;rounded=0;orthogonalLoop=1;jettySize=auto;html=1;entryX=1;entryY=0.5;entryDx=0;entryDy=0;" edge="1" parent="1" target="9ZyespkmRvrEI_CUxww9-13">
          <mxGeometry relative="1" as="geometry">
            <mxPoint x="1200" y="920" as="sourcePoint" />
            <mxPoint x="1355.5" y="330" as="targetPoint" />
            <Array as="points">
              <mxPoint x="1200" y="925" />
              <mxPoint x="1360" y="925" />
              <mxPoint x="1360" y="330" />
            </Array>
          </mxGeometry>
        </mxCell>
        <mxCell id="9ZyespkmRvrEI_CUxww9-88" style="edgeStyle=orthogonalEdgeStyle;rounded=0;orthogonalLoop=1;jettySize=auto;html=1;entryX=0.5;entryY=1;entryDx=0;entryDy=0;" edge="1" parent="1" source="9ZyespkmRvrEI_CUxww9-84" target="9ZyespkmRvrEI_CUxww9-9">
          <mxGeometry relative="1" as="geometry" />
        </mxCell>
        <mxCell id="9ZyespkmRvrEI_CUxww9-89" style="edgeStyle=orthogonalEdgeStyle;rounded=0;orthogonalLoop=1;jettySize=auto;html=1;entryX=0.75;entryY=1;entryDx=0;entryDy=0;" edge="1" parent="1" target="9ZyespkmRvrEI_CUxww9-3">
          <mxGeometry relative="1" as="geometry">
            <mxPoint x="375.1874999999998" y="60.18999999999998" as="targetPoint" />
            <mxPoint x="1235.7299999999996" y="924.9199999999997" as="sourcePoint" />
            <Array as="points">
              <mxPoint x="1437" y="925" />
              <mxPoint x="1437" y="40" />
              <mxPoint x="350" y="40" />
              <mxPoint x="350" y="60" />
              <mxPoint x="329" y="60" />
            </Array>
          </mxGeometry>
        </mxCell>
        <mxCell id="9ZyespkmRvrEI_CUxww9-84" value="&lt;h2&gt;requirements.txt&lt;/h2&gt;" style="shape=ext;double=1;rounded=1;whiteSpace=wrap;html=1;labelBackgroundColor=default;" vertex="1" parent="1">
          <mxGeometry x="942" y="830" width="299" height="190" as="geometry" />
        </mxCell>
        <mxCell id="9ZyespkmRvrEI_CUxww9-90" value="pandapower" style="ellipse;whiteSpace=wrap;html=1;" vertex="1" parent="1">
          <mxGeometry x="1035" y="940" width="110" height="70" as="geometry" />
        </mxCell>
        <mxCell id="9ZyespkmRvrEI_CUxww9-91" value="matplotlib" style="ellipse;whiteSpace=wrap;html=1;" vertex="1" parent="1">
          <mxGeometry x="1040" y="840" width="105" height="70" as="geometry" />
        </mxCell>
      </root>
    </mxGraphModel>
  </diagram>
</mxfile>
